<svg xmlns="http://www.w3.org/2000/svg" width="25.49" height="25" viewBox="0 0 25.49 25">
  <g id="icon-1" transform="translate(-62.697 -56.21)">
    <path id="パス_1" data-name="パス 1" d="M148.4,265.692c-5.007.654-9.2.668-8.825-4.71.191-2.768,3.137-4.457,4.546-5.992,1.689-1.842,2.006-3.266,4.4-3.388,2.339-.12,3.827,2.8,5.472,4.885,1.746,2.214,3.574,3.29,2.916,6.481C156.324,265.807,154.27,266.63,148.4,265.692Z" transform="translate(-72.706 -184.852)" fill="#0d96a0"/>
    <path id="パス_2" data-name="パス 2" d="M172.566,58.839c3.147.367,4.889,10.464-.905,8.917C167.351,66.6,169.333,58.554,172.566,58.839Z" transform="translate(-100.746 -2.48)" fill="#0d96a0"/>
    <path id="パス_3" data-name="パス 3" d="M65.873,187.286c3.16.182,5.367,10.153-.492,8.957C61.022,195.347,62.548,186.851,65.873,187.286Z" transform="translate(0 -123.992)" fill="#0d96a0"/>
    <path id="パス_4" data-name="パス 4" d="M315.244,56.344c-3.056.957-3.406,11.25,2.1,8.63C321.446,63.023,318.268,55.091,315.244,56.344Z" transform="translate(-236.852 0)" fill="#0d96a0"/>
    <path id="パス_5" data-name="パス 5" d="M421.491,193.162c-3.152-.31-6.515,8.061-.69,8.939C425.188,202.761,424.635,193.218,421.491,193.162Z" transform="translate(-335.783 -129.559)" fill="#0d96a0"/>
  </g>
</svg>
