<svg xmlns="http://www.w3.org/2000/svg" width="77.626" height="74.851" viewBox="0 0 77.626 74.851">
  <g id="icon-2" transform="translate(-888.944 -740.509)" opacity="0.3">
    <g id="グループ_23" data-name="グループ 23" transform="matrix(0.616, -0.788, 0.788, 0.616, 930.989, 802.404)">
      <path id="パス_1" data-name="パス 1" d="M9.453,15.058c-5.349.7-9.825.714-9.428-5.032.2-2.957,3.351-4.762,4.857-6.4C6.686,1.655,7.025.133,9.587,0c2.5-.129,4.088,2.989,5.846,5.219,1.866,2.366,3.818,3.515,3.116,6.924C17.924,15.181,15.729,16.059,9.453,15.058Z" transform="translate(4.428 11.257)" fill="#0d96a0"/>
      <path id="パス_2" data-name="パス 2" d="M3.612.008C6.974.4,8.836,11.188,2.645,9.535-1.96,8.3.158-.3,3.612.008Z" transform="translate(6.135 0.151)" fill="#0d96a0"/>
      <path id="パス_3" data-name="パス 3" d="M3.393.017c3.376.194,5.734,10.848-.525,9.57C-1.79,8.63-.159-.447,3.393.017Z" transform="translate(0 7.551)" fill="#0d96a0"/>
      <path id="パス_4" data-name="パス 4" d="M2.344.143C-.92,1.165-1.294,12.162,4.589,9.363,8.971,7.279,5.575-1.2,2.344.143Z" transform="translate(14.423 0)" fill="#0d96a0"/>
      <path id="パス_5" data-name="パス 5" d="M4.136.009C.769-.322-2.824,8.621,3.4,9.559,8.086,10.264,7.5.068,4.136.009Z" transform="translate(20.448 7.89)" fill="#0d96a0"/>
    </g>
    <g id="グループ_25" data-name="グループ 25" transform="matrix(0.616, -0.788, 0.788, 0.616, 885.048, 764.5)">
      <path id="パス_1-2" data-name="パス 1" d="M9.453,15.058c-5.349.7-9.825.714-9.428-5.032.2-2.957,3.351-4.762,4.857-6.4C6.686,1.655,7.025.133,9.587,0c2.5-.129,4.088,2.989,5.846,5.219,1.866,2.366,3.818,3.515,3.116,6.924C17.924,15.181,15.729,16.059,9.453,15.058Z" transform="translate(4.428 11.257)" fill="#0d96a0"/>
      <path id="パス_2-2" data-name="パス 2" d="M3.612.008C6.974.4,8.836,11.188,2.645,9.535-1.96,8.3.158-.3,3.612.008Z" transform="translate(6.135 0.151)" fill="#0d96a0"/>
      <path id="パス_3-2" data-name="パス 3" d="M3.393.017c3.376.194,5.734,10.848-.525,9.57C-1.79,8.63-.159-.447,3.393.017Z" transform="translate(0 7.551)" fill="#0d96a0"/>
      <path id="パス_4-2" data-name="パス 4" d="M2.344.143C-.92,1.165-1.294,12.162,4.589,9.363,8.971,7.279,5.575-1.2,2.344.143Z" transform="translate(14.423 0)" fill="#0d96a0"/>
      <path id="パス_5-2" data-name="パス 5" d="M4.136.009C.769-.322-2.824,8.621,3.4,9.559,8.086,10.264,7.5.068,4.136.009Z" transform="translate(20.448 7.89)" fill="#0d96a0"/>
    </g>
    <g id="グループ_24" data-name="グループ 24" transform="translate(935.917 745.613) rotate(-14)">
      <path id="パス_1-3" data-name="パス 1" d="M9.453,15.058c-5.349.7-9.825.714-9.428-5.032.2-2.957,3.351-4.762,4.857-6.4C6.686,1.655,7.025.133,9.587,0c2.5-.129,4.088,2.989,5.846,5.219,1.866,2.366,3.818,3.515,3.116,6.924C17.924,15.181,15.729,16.059,9.453,15.058Z" transform="translate(4.428 11.257)" fill="#0d96a0"/>
      <path id="パス_2-3" data-name="パス 2" d="M3.612.008C6.974.4,8.836,11.188,2.645,9.535-1.96,8.3.158-.3,3.612.008Z" transform="translate(6.135 0.151)" fill="#0d96a0"/>
      <path id="パス_3-3" data-name="パス 3" d="M3.393.017c3.376.194,5.734,10.848-.525,9.57C-1.79,8.63-.159-.447,3.393.017Z" transform="translate(0 7.551)" fill="#0d96a0"/>
      <path id="パス_4-3" data-name="パス 4" d="M2.344.143C-.92,1.165-1.294,12.162,4.589,9.363,8.971,7.279,5.575-1.2,2.344.143Z" transform="translate(14.423)" fill="#0d96a0"/>
      <path id="パス_5-3" data-name="パス 5" d="M4.136.009C.769-.322-2.824,8.621,3.4,9.559,8.086,10.264,7.5.068,4.136.009Z" transform="translate(20.448 7.89)" fill="#0d96a0"/>
    </g>
  </g>
</svg>
