<svg width="180" height="18" viewBox="0 0 180 18" fill="none" xmlns="http://www.w3.org/2000/svg">
<path d="M8.064 11.05H14.184V12.598H8.064V11.05ZM8.064 13.354H14.184V14.884H8.064V13.354ZM7.128 8.674H14.22V10.312H9.108V17.638H7.128V8.674ZM10.278 3.814H14.274V5.146H11.898V6.928H10.278V3.814ZM13.518 8.674H15.534V15.712C15.534 16.63 15.354 17.08 14.724 17.35C14.112 17.62 13.248 17.638 12.024 17.638C11.934 17.134 11.682 16.432 11.448 15.946C12.15 15.982 12.978 15.982 13.212 15.982C13.428 15.982 13.518 15.91 13.518 15.694V8.674ZM5.454 6.154H17.298V9.538H15.228V7.81H7.416V9.538H5.454V6.154ZM7.11 1.348H15.552V6.964H13.518V2.986H9.054V6.964H7.11V1.348ZM1.53 2.392L2.7 0.807999C3.816 1.24 5.274 1.978 5.994 2.59L4.752 4.354C4.086 3.724 2.664 2.896 1.53 2.392ZM0.486 7.288L1.656 5.668C2.772 6.064 4.266 6.784 5.004 7.378L3.762 9.178C3.078 8.566 1.638 7.774 0.486 7.288ZM1.008 16.018C1.926 14.65 3.222 12.364 4.23 10.258L5.886 11.608C4.986 13.516 3.906 15.604 2.898 17.386L1.008 16.018ZM19.044 1.942H34.974V4.066H19.044V1.942ZM23.058 14.452H33.012V16.54H23.058V14.452ZM22.176 8.044H33.948V17.548H31.626V10.114H24.372V17.62H22.176V8.044ZM24.084 3.112L26.406 3.706C25.074 7.36 22.914 11.158 19.746 13.426C19.386 12.94 18.684 12.166 18.216 11.752C21.132 9.772 23.166 6.226 24.084 3.112ZM38.952 3.094C41.58 3.4 43.776 3.436 45.684 3.292C47.322 3.184 48.798 2.896 50.292 2.428L50.58 4.48C49.284 4.84 47.718 5.146 46.152 5.254C44.298 5.398 41.814 5.416 39.078 5.146L38.952 3.094ZM38.628 6.856C41.868 7.18 44.784 7.126 46.944 6.91C48.888 6.748 50.238 6.388 51.282 6.082L51.642 8.206C50.562 8.476 49.23 8.728 47.772 8.89C45.504 9.142 41.994 9.196 38.754 8.98L38.628 6.856ZM44.64 3.598C44.46 2.932 44.244 2.266 43.992 1.564L46.404 1.294C46.62 3.022 47.07 4.606 47.538 5.992C47.97 7.252 48.852 9.106 49.68 10.366C49.932 10.726 50.166 10.996 50.49 11.302L49.41 12.958C48.402 12.742 46.44 12.526 45.126 12.382L45.306 10.654C46.062 10.726 47.052 10.816 47.574 10.87C46.62 9.268 45.954 7.702 45.504 6.388C45.054 5.11 44.874 4.462 44.64 3.598ZM42.084 11.05C41.652 11.644 41.274 12.256 41.274 13.03C41.274 14.362 42.534 14.902 44.928 14.902C46.62 14.902 48.15 14.776 49.446 14.524L49.32 16.81C48.06 17.008 46.404 17.134 44.928 17.134C41.346 17.134 39.114 16.072 39.06 13.516C39.042 12.346 39.42 11.464 39.852 10.618L42.084 11.05ZM62.514 1.636C62.388 2.14 62.226 2.95 62.136 3.346C61.884 4.57 61.434 6.766 60.948 8.602C60.3 11.122 59.094 14.794 58.104 16.936L55.602 16.09C56.664 14.272 58.032 10.51 58.716 7.99C59.166 6.298 59.58 4.318 59.706 3.256C59.796 2.59 59.814 1.852 59.76 1.42L62.514 1.636ZM57.924 4.336C60.12 4.336 62.658 3.994 64.998 3.436V5.686C62.766 6.208 59.94 6.514 57.906 6.514C57.024 6.514 56.358 6.478 55.728 6.442L55.656 4.192C56.592 4.3 57.186 4.336 57.924 4.336ZM63.576 7.09C64.584 6.982 65.88 6.91 67.05 6.91C68.076 6.91 69.156 6.964 70.2 7.072L70.164 9.232C69.246 9.124 68.148 8.998 67.068 8.998C65.826 8.998 64.71 9.052 63.576 9.196V7.09ZM64.548 11.608C64.422 12.13 64.314 12.706 64.314 13.102C64.314 13.894 64.836 14.488 66.78 14.488C67.986 14.488 69.228 14.362 70.506 14.128L70.416 16.414C69.408 16.558 68.202 16.666 66.762 16.666C63.72 16.666 62.1 15.64 62.1 13.822C62.1 12.976 62.262 12.112 62.406 11.41L64.548 11.608ZM79.182 1.456C79.092 1.96 79.02 2.626 79.02 3.706C79.002 4.57 79.02 7.936 79.02 9.142L76.86 8.296C76.86 7.072 76.86 4.678 76.86 3.706C76.86 2.572 76.806 1.96 76.662 1.456H79.182ZM85.23 3.112C86.364 3.814 88.254 5.578 89.064 6.55L87.444 8.206C86.454 7 84.762 5.344 83.718 4.606L85.23 3.112ZM73.404 3.616C74.394 3.76 75.474 3.868 76.302 3.868C78.102 3.868 80.172 3.634 82.224 3.058V5.236C80.136 5.704 77.778 5.884 76.464 5.884C75.708 5.884 74.718 5.848 73.53 5.722L73.404 3.616ZM78.624 11.986C78.606 12.364 78.588 13.12 78.588 13.678C78.588 14.452 78.786 14.848 80.928 14.848C81.828 14.848 82.998 14.722 83.682 14.524C84.618 14.236 84.996 13.624 84.996 12.706C84.996 12.004 84.978 11.32 84.87 10.492L87.354 11.23C87.354 12.184 87.372 12.598 87.336 13.354C87.246 14.974 86.742 16 84.672 16.63C83.862 16.882 81.99 17.026 80.766 17.026C76.554 17.026 76.374 15.694 76.374 14.434C76.374 13.804 76.41 13.12 76.41 12.634L78.624 11.986ZM79.542 9.916C79.542 12.022 78.57 14.056 76.104 14.056C74.79 14.056 73.44 13.138 73.44 10.834C73.44 8.692 74.826 7.09 76.77 7.09C78.624 7.09 79.542 8.26 79.542 9.916ZM76.32 11.914C77.166 11.914 77.472 11.032 77.472 10.006C77.472 9.304 77.148 8.89 76.644 8.89C75.924 8.89 75.33 9.61 75.33 10.654C75.33 11.446 75.816 11.914 76.32 11.914ZM95.994 1.51C97.704 2.05 101.628 2.752 103.212 2.914L102.672 5.128C100.836 4.876 96.84 4.048 95.436 3.688L95.994 1.51ZM96.12 5.128C95.868 6.136 95.562 8.314 95.436 9.358C97.056 8.17 98.856 7.63 100.746 7.63C103.896 7.63 105.732 9.574 105.732 11.752C105.732 15.046 103.122 17.566 95.652 16.918L94.95 14.56C100.368 15.316 103.212 14.002 103.212 11.698C103.212 10.528 102.114 9.682 100.53 9.682C98.496 9.682 96.678 10.438 95.544 11.806C95.22 12.184 95.022 12.472 94.878 12.832L92.79 12.328C93.15 10.564 93.582 7.036 93.69 4.804L96.12 5.128ZM109.044 12.364H117.45V13.894H109.044V12.364ZM108.63 3.796H117.63V5.362H108.63V3.796ZM112.212 2.518H114.156V15.424H112.212V2.518ZM108.54 15.226C110.772 15.064 114.21 14.812 117.45 14.524L117.468 16.162C114.408 16.486 111.132 16.81 108.792 17.026L108.54 15.226ZM110.826 9.484V10.312H115.578V9.484H110.826ZM110.826 7.414V8.224H115.578V7.414H110.826ZM109.098 6.064H117.36V11.662H109.098V6.064ZM116.478 0.807999L117.432 2.428C115.128 2.896 111.852 3.166 109.152 3.22C109.08 2.788 108.882 2.104 108.684 1.69C111.366 1.564 114.498 1.24 116.478 0.807999ZM117.63 4.786H123.858V6.766H117.63V4.786ZM122.994 4.786H125.064C125.064 4.786 125.046 5.488 125.046 5.74C124.884 13.156 124.74 15.784 124.146 16.594C123.75 17.206 123.336 17.404 122.742 17.512C122.184 17.62 121.338 17.62 120.492 17.584C120.438 16.99 120.204 16.108 119.862 15.532C120.636 15.604 121.32 15.604 121.68 15.604C121.95 15.604 122.13 15.55 122.292 15.298C122.706 14.758 122.85 12.22 122.994 5.254V4.786ZM119.358 1.024H121.428C121.41 8.71 121.392 14.488 117.234 17.764C116.928 17.242 116.226 16.504 115.74 16.144C119.538 13.246 119.34 8.206 119.358 1.024ZM135.288 0.717999L137.232 1.096C136.584 4.084 135.396 6.946 133.938 8.746C133.596 8.422 132.75 7.81 132.3 7.54C133.74 5.956 134.748 3.382 135.288 0.717999ZM141.336 3.526H143.37C143.37 3.526 143.352 4.228 143.334 4.498C142.992 12.58 142.668 15.532 141.984 16.432C141.57 17.044 141.174 17.26 140.58 17.368C140.076 17.476 139.32 17.476 138.528 17.44C138.474 16.828 138.258 15.91 137.934 15.316C138.6 15.388 139.212 15.406 139.554 15.406C139.824 15.406 139.986 15.316 140.202 15.064C140.706 14.434 141.048 11.644 141.336 3.994V3.526ZM135.828 3.526H142.254V5.524H134.838L135.828 3.526ZM137.088 4.174L138.654 4.948C137.934 8.044 136.35 11.608 134.388 13.444C133.974 13.03 133.29 12.526 132.732 12.22C134.82 10.582 136.404 7.198 137.088 4.174ZM139.59 4.372L141.264 5.146C140.4 9.826 138.492 14.722 135.522 17.206C135.108 16.774 134.352 16.234 133.758 15.946C136.908 13.696 138.762 8.998 139.59 4.372ZM126.468 10.528C128.232 10.132 130.86 9.394 133.344 8.692L133.632 10.6C131.364 11.302 128.898 12.04 126.99 12.598L126.468 10.528ZM129.708 0.717999H131.688V17.62H129.708V0.717999ZM127.332 1.744L129.132 2.05C128.898 4.426 128.466 6.946 127.818 8.548C127.494 8.296 126.72 7.792 126.288 7.576C126.864 6.136 127.17 3.886 127.332 1.744ZM127.818 4.192H133.182V6.262H127.422L127.818 4.192ZM149.976 5.758H161.244V7.576H149.976V5.758ZM154.674 12.346L155.934 11.266C156.924 12.058 158.256 13.21 158.886 13.948L157.554 15.172C156.96 14.398 155.664 13.192 154.674 12.346ZM150.372 8.872H159.534V10.708H152.298V17.62H150.372V8.872ZM158.688 8.872H160.74V15.514C160.74 16.432 160.56 16.954 159.93 17.278C159.318 17.584 158.472 17.62 157.338 17.602C157.248 17.062 156.924 16.234 156.654 15.73C157.374 15.766 158.166 15.766 158.382 15.748C158.616 15.748 158.688 15.694 158.688 15.478V8.872ZM154.44 6.388H156.33V9.574C156.33 11.554 155.736 13.84 153.108 15.262C152.856 14.848 152.298 14.218 151.866 13.894C154.188 12.868 154.44 10.996 154.44 9.574V6.388ZM148.464 2.644H161.37V4.588H148.464V2.644ZM147.294 2.644H149.346V8.044C149.346 10.924 148.95 15.082 146.43 17.548C146.142 17.152 145.314 16.36 144.882 16.108C147.096 13.858 147.294 10.564 147.294 8.026V2.644ZM152.712 0.717999H154.998V3.922H152.712V0.717999ZM144.522 4.894L146.088 4.12C146.664 5.164 147.24 6.55 147.42 7.45L145.746 8.332C145.584 7.432 145.062 5.992 144.522 4.894ZM144.36 11.05C145.224 10.69 146.448 10.096 147.69 9.466L148.194 11.158C147.15 11.824 146.034 12.49 144.99 13.084L144.36 11.05ZM172.818 0.807999H174.924V3.634H172.818V0.807999ZM168.822 2.698H179.244V6.244H177.246V4.534H170.73V6.262H168.822V2.698ZM170.154 5.992H177.858V7.846H170.154V5.992ZM169.074 9.142H179.172V11.068H169.074V9.142ZM171.108 10.078H173.16C172.998 13.948 172.458 16.324 168.588 17.62C168.408 17.098 167.868 16.306 167.454 15.91C170.712 14.938 171 13.21 171.108 10.078ZM174.42 9.862H176.454V14.974C176.454 15.496 176.49 15.568 176.724 15.568C176.832 15.568 177.21 15.568 177.336 15.568C177.624 15.568 177.678 15.28 177.714 13.444C178.11 13.768 178.974 14.11 179.514 14.236C179.334 16.774 178.83 17.458 177.57 17.458C177.246 17.458 176.652 17.458 176.364 17.458C174.78 17.458 174.42 16.846 174.42 14.992V9.862ZM163.278 1.492H167.526V3.418H165.168V17.638H163.278V1.492ZM166.86 1.492H167.22L167.526 1.42L168.93 2.212C168.462 3.76 167.868 5.722 167.346 7.126C168.462 8.53 168.678 9.736 168.678 10.78C168.678 11.95 168.444 12.706 167.868 13.102C167.58 13.3 167.238 13.426 166.842 13.48C166.518 13.516 166.086 13.534 165.672 13.534C165.654 13.012 165.492 12.202 165.204 11.68C165.528 11.698 165.762 11.716 165.978 11.698C166.176 11.698 166.356 11.662 166.482 11.554C166.698 11.392 166.788 11.032 166.788 10.528C166.788 9.682 166.554 8.566 165.528 7.36C166.032 5.74 166.608 3.256 166.86 2.104V1.492Z" fill="#505050"/>
</svg>
